<?xml version="1.0" standalone="no"?><!DOCTYPE svg PUBLIC "-//W3C//DTD SVG 1.1//EN" "http://www.w3.org/Graphics/SVG/1.1/DTD/svg11.dtd"><svg t="1520322517827" class="icon" style="" viewBox="0 0 1024 1024" version="1.1" xmlns="http://www.w3.org/2000/svg" p-id="6396" xmlns:xlink="http://www.w3.org/1999/xlink" width="200" height="200"><defs><style type="text/css"></style></defs><path d="M512 0C229.218 0 0 229.218 0 512s229.218 512 512 512 512-229.218 512-512S794.782 0 512 0zM512 944c-238.594 0-432-193.406-432-432S273.406 80 512 80s432 193.406 432 432S750.594 944 512 944z" p-id="6397" fill="#2c2c2c"></path><path d="M631.688 396.718c0.344-2.218 0.5-4.282 0.5-6.188 0-17.594-11-26.344-33-26.344-10.562 0-17.688 1.812-21.376 5.376-3.75 3.624-6.312 10.782-7.812 21.5-8.438-11.876-16.938-19.876-25.5-24.032-7.876-3.782-19.156-5.656-33.75-5.656-37.594 0-70.218 19.124-97.75 57.344-25.376 35.156-38.032 72.718-38.032 112.656 0 31.188 8.218 58.562 24.688 82.188 18.25 26.032 42.124 39.032 71.532 39.032 25.188 0 49.376-9.032 72.532-27.094 10.438 18.062 28.282 27.094 53.468 27.094 47.688 0 88.532-20.124 122.438-60.406C751.876 553.876 768 509.812 768 460.062c0-59.5-25.032-109.124-75.094-148.844C646.532 274.438 593.5 256 533.688 256c-77.812 0-143.124 24.594-196.032 73.812C283.218 380.562 256 445.312 256 524.124c0 80.532 27.906 142.376 83.656 185.562C389.718 748.594 455.376 768 536.688 768c34.624 0 68.376-5.406 101.312-16.282 36.124-11.844 65.844-28.718 89.188-50.594 7.532-7.218 14.782-16 21.656-26.312 8.594-12.594 12.844-22.75 12.844-30.468 0-5.844-2.032-11.062-6.156-15.656-4.094-4.562-9.032-6.844-14.718-6.844-10.782 0-19.844 3.812-27.25 11.344-12.218 13.124-21.312 23.124-27.188 30-40 34.938-89.688 52.406-149.188 52.406-63.812 0-114.876-15.656-153.156-46.968-41.844-34.218-62.75-83.25-62.75-147.062 0-61.938 19.876-113.688 59.718-155.25C420.812 324.782 470.968 304 531.406 304c47.562 0 87.094 13.5 118.656 40.562 33.812 28.688 50.656 66.876 50.656 114.5 0 24.938-4.25 48.188-12.844 69.656-9.562 24.094-23.438 42.656-41.562 55.718-13.624 9.782-24.282 14.688-32 14.688-8.406 0-12.594-3.938-12.594-11.844 0-3.282 2.156-18.406 6.562-45.438L631.688 396.718zM534.688 539.156c-15.468 42.906-31.938 64.376-49.376 64.376-26.062 0-39.094-16.624-39.094-49.906 0-25.844 7.468-54.938 22.468-87.376 17.468-38.282 37.344-57.406 59.688-57.406 9.25 0 16.124 5 20.656 14.968 3.688 7.624 5.532 16.688 5.532 27.188C554.562 473.438 547.968 502.812 534.688 539.156z" p-id="6398" fill="#2c2c2c"></path></svg>